<?xml version="1.0" standalone="no"?>
<!DOCTYPE svg PUBLIC "-//W3C//DTD SVG 20010904//EN"
 "http://www.w3.org/TR/2001/REC-SVG-20010904/DTD/svg10.dtd">
<svg version="1.0" xmlns="http://www.w3.org/2000/svg"
 width="558.000000pt" height="558.000000pt" viewBox="0 0 558.000000 558.000000"
 preserveAspectRatio="xMidYMid meet">
<metadata>
Created by potrace 1.14, written by Peter Selinger 2001-2017
</metadata>
<g transform="translate(0.000000,558.000000) scale(0.100000,-0.100000)"
fill="#000000" stroke="none">
<path d="M2693 4823 c-20 -7 -39 -11 -41 -8 -3 3 -14 -2 -24 -12 -10 -9 -18
-13 -18 -9 0 4 -13 -1 -30 -11 -16 -9 -30 -21 -30 -25 0 -4 -7 -8 -15 -8 -40
0 -163 -170 -168 -232 -1 -10 -4 -18 -7 -18 -7 0 -14 -77 -12 -135 2 -36 8
-80 12 -80 1 0 3 -9 5 -19 6 -31 65 -146 76 -146 5 0 9 -7 9 -15 0 -8 7 -15
16 -15 8 0 12 -4 9 -10 -3 -5 -2 -10 3 -10 6 0 24 -13 42 -30 17 -16 47 -35
66 -42 19 -6 34 -15 34 -18 0 -3 10 -6 22 -7 24 -2 40 -22 30 -38 -4 -5 -7
-12 -8 -15 0 -3 -6 -25 -14 -50 -7 -25 -13 -48 -12 -52 1 -5 -3 -8 -9 -8 -5 0
-7 -5 -4 -10 4 -6 2 -16 -3 -23 -5 -7 -8 -20 -7 -30 2 -10 -1 -14 -7 -11 -7 5
-9 -2 -6 -20 3 -14 1 -26 -3 -26 -5 0 -9 -9 -9 -20 0 -11 -5 -20 -11 -20 -5 0
-7 -5 -3 -11 3 -6 0 -15 -7 -20 -12 -7 -11 -9 1 -9 11 0 12 -2 3 -8 -7 -4 -14
-17 -16 -27 -2 -11 -10 -40 -17 -65 -8 -25 -14 -47 -14 -50 -1 -3 -5 -11 -9
-17 -5 -7 -5 -17 -2 -23 3 -5 1 -10 -4 -10 -6 0 -10 -3 -10 -7 1 -5 0 -10 -1
-13 -3 -10 -11 -45 -12 -57 -1 -7 -4 -13 -7 -13 -4 0 -8 -12 -9 -26 -1 -15 -6
-32 -11 -38 -5 -6 -9 -14 -9 -19 -1 -19 -15 -73 -22 -82 -5 -5 -9 -14 -9 -20
-1 -13 -30 -116 -38 -135 -8 -18 -7 -17 -17 -60 -5 -19 -13 -40 -18 -47 -5 -7
-7 -17 -3 -23 3 -5 2 -10 -3 -10 -5 0 -9 -6 -9 -12 0 -7 -15 -60 -33 -118 -18
-58 -33 -112 -34 -120 -2 -8 -8 -28 -15 -45 -7 -16 -14 -37 -16 -45 -2 -8 -4
-15 -5 -15 -1 0 -3 -7 -5 -16 -1 -8 -15 -56 -31 -105 -16 -49 -29 -93 -30 -99
-1 -5 -3 -13 -4 -17 -1 -5 -4 -12 -5 -18 -1 -5 -4 -12 -5 -15 -1 -3 -3 -8 -4
-12 -1 -5 -4 -12 -7 -18 -4 -5 -9 -27 -13 -47 -4 -21 -11 -38 -17 -38 -6 0 -8
-4 -5 -9 4 -5 3 -16 0 -25 -5 -12 -10 -13 -26 -5 -11 6 -17 13 -14 16 2 3 -5
15 -17 28 -12 12 -33 37 -47 55 -14 18 -30 37 -35 44 -6 6 -26 32 -44 58 -19
26 -40 49 -47 52 -8 3 -14 10 -14 16 0 6 -6 17 -12 24 -7 7 -24 27 -38 45 -14
18 -36 44 -50 57 -14 13 -21 24 -17 24 7 0 -12 24 -70 88 -13 13 -20 29 -16
35 3 5 2 8 -3 5 -5 -3 -17 3 -26 14 -10 10 -16 18 -13 18 3 0 -3 8 -13 18 -9
10 -26 30 -37 46 -11 15 -32 42 -48 59 -36 42 -39 46 -68 89 -14 21 -29 35
-32 31 -4 -3 -7 -1 -7 5 0 7 -8 21 -17 33 -10 11 -25 29 -34 39 -8 10 -24 31
-35 45 -10 15 -30 40 -44 55 -14 16 -36 43 -50 61 -14 18 -31 38 -38 46 -7 7
-11 13 -7 13 3 0 -4 10 -17 23 -13 13 -34 38 -48 57 -14 18 -32 41 -40 51 -8
9 -26 32 -40 49 -14 17 -32 40 -40 49 -8 10 -26 33 -40 51 -14 19 -35 44 -48
57 -13 13 -20 23 -17 23 3 0 -4 11 -17 24 -13 13 -32 36 -43 52 -11 15 -30 39
-42 53 -13 14 -26 31 -30 36 -5 6 -14 18 -21 27 -12 15 -10 21 12 43 14 14 30
25 35 25 6 0 8 7 5 15 -4 8 -1 15 5 15 14 0 56 73 77 135 18 55 26 203 11 222
-5 7 -7 22 -4 33 3 11 1 18 -4 14 -5 -3 -9 0 -9 7 0 21 -42 102 -66 128 -13
14 -20 29 -17 35 3 6 3 8 -2 4 -4 -4 -22 7 -39 25 -17 18 -35 34 -41 35 -5 1
-19 10 -30 19 -11 9 -22 17 -25 16 -7 -1 -31 7 -55 18 -53 25 -249 29 -266 6
-3 -4 -16 -9 -27 -10 -12 -1 -22 -5 -22 -10 0 -5 -6 -7 -14 -4 -8 3 -17 -1
-20 -9 -3 -9 -10 -13 -15 -9 -6 3 -14 -3 -20 -12 -6 -10 -11 -14 -11 -9 0 5
-13 -5 -30 -22 -16 -18 -30 -29 -30 -25 0 4 -18 -18 -40 -47 -22 -29 -40 -60
-40 -67 0 -7 -5 -13 -11 -13 -5 0 -8 -4 -4 -9 3 -5 1 -12 -3 -15 -34 -21 -39
-254 -7 -318 8 -17 15 -37 15 -45 0 -7 5 -13 10 -13 6 0 10 -6 10 -12 0 -7 14
-29 30 -48 16 -19 30 -39 30 -43 0 -5 4 -6 9 -3 5 3 11 -3 14 -14 3 -11 12
-20 21 -20 9 0 16 -4 16 -10 0 -5 7 -10 15 -10 9 0 18 -6 21 -14 3 -8 12 -12
20 -9 8 3 14 0 14 -6 0 -6 8 -11 18 -11 10 0 22 -3 26 -7 13 -13 76 -31 76
-21 0 5 6 6 13 1 16 -10 99 -12 112 -3 9 7 36 -12 35 -25 0 -3 0 -6 1 -7 2 -6
7 -45 10 -75 2 -18 6 -33 9 -33 3 0 7 -12 8 -27 3 -30 9 -68 12 -68 1 0 3 -9
5 -20 1 -11 6 -33 9 -50 4 -16 9 -43 12 -60 3 -16 8 -37 11 -45 3 -8 7 -28 8
-45 2 -16 4 -32 5 -35 1 -3 2 -9 1 -14 -1 -4 3 -14 9 -21 6 -7 10 -17 9 -21
-4 -25 2 -64 10 -60 5 4 7 -3 4 -14 -3 -11 0 -27 7 -35 10 -12 10 -15 0 -15
-10 0 -10 -3 0 -15 6 -8 9 -19 5 -25 -3 -5 -2 -10 4 -10 6 0 8 -6 5 -14 -3 -8
0 -17 6 -21 8 -5 8 -11 -1 -21 -9 -11 -9 -14 0 -14 7 0 9 -4 6 -10 -3 -5 -2
-10 2 -10 5 0 9 -8 10 -17 2 -47 8 -83 13 -83 5 0 10 -37 13 -87 0 -7 3 -13 6
-13 6 0 12 -32 14 -77 1 -13 4 -23 7 -23 7 0 10 -19 10 -57 0 -12 5 -25 10
-28 6 -4 8 -11 4 -16 -3 -5 0 -16 6 -24 10 -12 10 -15 0 -15 -9 0 -10 -3 -1
-13 6 -8 8 -17 4 -20 -3 -4 -2 -7 3 -7 10 0 12 -8 16 -72 2 -21 6 -38 11 -38
4 0 7 -12 7 -27 -1 -16 8 -64 19 -108 10 -44 22 -93 25 -110 18 -101 24 -130
26 -130 3 0 12 -60 11 -77 0 -10 4 -18 7 -18 4 0 9 -15 10 -32 2 -18 7 -49 12
-68 5 -19 11 -46 14 -60 2 -14 7 -36 10 -50 3 -14 8 -36 10 -50 3 -14 7 -35
10 -47 2 -11 8 -42 11 -67 4 -25 10 -44 14 -42 3 2 5 -10 5 -27 -1 -18 2 -39
6 -47 5 -8 9 -28 11 -45 2 -16 8 -36 14 -44 8 -12 7 -13 -5 -6 -12 7 -13 6 -4
-6 10 -12 24 -70 30 -121 1 -10 2 -19 4 -20 1 -2 4 -16 6 -32 4 -23 2 -27 -10
-23 -9 4 -16 1 -16 -5 0 -6 -3 -8 -7 -5 -3 4 -17 0 -30 -8 -13 -9 -23 -12 -23
-8 0 21 -42 -64 -44 -88 -1 -16 -5 -31 -8 -35 -11 -11 56 -104 75 -104 9 0 17
-3 17 -7 0 -5 27 -9 60 -10 42 -2 60 1 60 10 0 7 3 8 8 2 10 -14 354 -16 345
-2 -4 6 -1 7 8 1 20 -13 720 -13 712 -1 -4 6 -1 7 8 1 21 -13 241 -15 233 -2
-5 7 -2 8 7 2 20 -13 720 -13 712 -1 -4 6 -1 7 8 1 21 -13 241 -15 233 -2 -5
7 -2 8 7 2 20 -13 720 -13 712 -1 -4 6 -1 7 8 1 21 -13 241 -15 233 -2 -5 7
-2 8 7 2 19 -12 109 -13 133 -1 13 6 16 6 12 -2 -12 -18 5 -12 39 13 61 47 77
122 40 192 -8 16 -15 25 -15 20 0 -6 -7 -1 -15 10 -8 10 -15 15 -15 10 0 -5
-7 -3 -15 4 -8 6 -18 9 -23 6 -14 -8 -4 67 11 92 5 7 3 12 -4 12 -9 0 -9 4 1
15 6 8 9 19 5 25 -3 5 -2 10 2 10 5 0 9 10 10 23 0 12 3 33 6 47 3 14 9 36 12
50 3 14 7 39 9 55 2 17 6 37 9 45 3 8 10 40 16 70 6 30 13 69 16 85 3 17 8 39
10 50 2 11 6 31 9 45 13 55 31 156 29 168 0 6 2 12 6 12 4 0 8 15 9 32 2 18
10 62 18 98 9 36 17 76 19 90 3 14 6 34 8 45 3 11 8 40 13 65 9 50 10 58 14
65 3 5 6 32 9 61 1 9 6 12 14 8 9 -5 9 -4 0 6 -9 10 -9 18 -1 34 6 12 11 22
10 24 -1 1 -2 11 -2 23 0 13 4 18 13 13 9 -5 9 -4 0 6 -7 8 -8 21 -3 39 5 14
12 42 15 61 12 68 13 75 20 105 3 17 8 44 11 60 3 17 11 36 16 43 7 8 7 12 -1
12 -7 0 -9 4 -6 10 9 14 23 80 28 126 2 12 9 30 17 39 11 14 12 19 3 22 -10 4
-10 10 -2 25 6 11 8 26 5 34 -3 9 1 14 12 14 11 0 13 3 6 8 -6 4 -9 16 -7 27
3 11 5 28 6 38 1 9 5 17 10 17 4 0 7 6 6 13 -2 6 1 32 6 57 4 25 9 54 11 65 1
11 3 20 4 20 2 0 3 7 20 90 6 33 14 71 16 85 3 14 6 33 7 43 1 9 5 17 9 17 4
0 5 7 1 16 -3 9 0 20 8 25 11 6 11 9 1 9 -9 0 -10 5 -3 19 6 10 12 33 13 51 1
17 5 33 9 36 4 2 6 16 4 32 -2 28 -2 28 54 26 31 0 59 4 63 10 5 8 8 7 8 -1 0
-12 50 -8 60 5 5 6 24 11 58 14 6 1 12 4 12 8 0 3 16 12 35 19 19 7 63 40 98
74 91 88 137 193 137 312 0 73 -20 149 -56 218 -32 63 -137 166 -176 174 -16
3 -25 10 -21 16 4 6 0 8 -10 4 -9 -3 -17 -2 -19 4 -2 5 -13 11 -26 14 -12 3
-32 7 -44 11 -42 10 -123 11 -140 2 -12 -6 -18 -5 -18 2 0 6 -5 8 -12 3 -7 -4
-20 -8 -28 -10 -14 -2 -44 -15 -83 -35 -11 -5 -21 -7 -24 -5 -2 3 -14 -5 -27
-17 -12 -11 -34 -29 -49 -40 -14 -10 -29 -27 -32 -37 -4 -10 -11 -18 -17 -16
-9 2 -78 -119 -87 -153 -2 -8 -7 -26 -10 -40 -9 -29 -6 -150 3 -195 13 -56 65
-156 101 -190 39 -38 44 -63 18 -86 -10 -9 -36 -37 -58 -64 -22 -27 -48 -57
-57 -67 -10 -10 -16 -18 -14 -18 4 0 -10 -17 -98 -112 -24 -26 -41 -50 -38
-53 3 -3 0 -5 -7 -5 -7 0 -10 -4 -7 -8 3 -5 -6 -15 -19 -22 -14 -7 -25 -19
-25 -27 0 -7 -4 -13 -10 -13 -5 0 -10 -7 -10 -16 0 -8 -4 -12 -10 -9 -5 3 -10
1 -10 -4 0 -6 -15 -26 -32 -44 -18 -19 -33 -35 -33 -38 -1 -5 -40 -51 -75 -89
-14 -14 -36 -41 -50 -60 -14 -18 -38 -46 -53 -62 -16 -15 -26 -28 -23 -28 3 0
-5 -10 -17 -23 -53 -55 -87 -97 -87 -107 0 -6 -4 -8 -10 -5 -5 3 -10 2 -10 -3
0 -5 -8 -18 -17 -29 -10 -11 -34 -40 -53 -63 -19 -24 -46 -54 -60 -68 -14 -14
-18 -21 -10 -17 8 5 -3 -9 -25 -32 -65 -66 -123 -133 -116 -133 3 0 2 -4 -4
-8 -5 -4 -37 -38 -70 -77 -33 -38 -63 -71 -67 -73 -5 -2 -8 -10 -8 -18 0 -8
-4 -14 -9 -14 -5 0 -18 -15 -30 -32 -11 -18 -21 -29 -21 -25 0 4 -6 2 -14 -5
-8 -7 -12 -15 -11 -18 2 -3 -18 -29 -44 -57 -27 -29 -51 -59 -54 -67 -7 -18
-37 -22 -37 -5 0 5 4 8 8 5 5 -3 -1 16 -14 41 -12 26 -20 52 -17 59 2 7 0 15
-6 19 -6 3 -11 19 -11 34 0 15 -4 31 -9 37 -9 8 -21 52 -23 82 -1 6 -5 12 -9
12 -4 0 -6 9 -4 20 2 11 0 20 -4 20 -5 0 -11 12 -14 28 -8 42 -13 62 -36 131
-12 35 -21 73 -21 83 0 10 -5 18 -12 18 -6 0 -9 2 -6 5 5 6 -29 132 -51 188
-6 15 -8 27 -6 27 2 0 0 12 -6 28 -6 15 -12 35 -14 45 -6 28 -27 90 -37 110
-5 10 -6 22 -3 27 3 4 -2 16 -11 24 -11 12 -12 16 -2 16 10 0 10 2 1 8 -7 5
-14 20 -15 35 -1 15 -6 27 -11 27 -4 0 -5 5 -2 10 3 6 2 10 -2 10 -5 0 -10 10
-10 23 -2 36 -8 54 -23 73 -12 15 -12 16 -1 9 11 -6 12 -5 5 6 -9 14 -14 34
-16 57 -1 6 -4 12 -8 12 -3 0 -6 8 -7 18 -2 28 -8 47 -15 52 -4 3 -8 20 -10
38 -1 18 -6 32 -10 32 -4 0 -8 8 -8 18 0 11 -9 44 -19 75 -11 30 -17 58 -14
61 4 3 2 6 -4 6 -6 0 -9 9 -6 20 3 11 0 20 -6 20 -6 0 -11 10 -11 23 0 13 -3
27 -7 31 -4 3 -9 17 -11 29 -5 30 -10 52 -12 52 -1 0 -3 8 -5 18 -2 11 -1 16
2 13 4 -3 12 -1 20 5 7 6 13 8 13 4 0 -4 7 -2 15 5 8 7 22 10 30 6 8 -3 15 -2
15 3 0 5 16 17 36 26 21 10 49 30 64 46 16 15 31 25 34 22 3 -4 6 -2 6 4 0 5
11 23 25 39 14 16 29 34 33 39 12 16 37 79 34 88 -1 4 3 7 9 7 6 0 9 7 6 15
-4 8 -2 17 3 20 5 3 9 13 9 23 0 9 2 37 3 62 3 43 -12 155 -22 168 -2 1 -3 5
-4 10 -1 4 -15 32 -33 63 -35 62 -101 134 -133 144 -11 3 -20 14 -20 23 0 15
-2 15 -10 2 -5 -8 -10 -10 -10 -4 0 6 -19 17 -42 24 -24 8 -47 16 -53 19 -31
17 -167 19 -212 4z"/>
</g>
</svg>
